<svg width="32" height="32" viewBox="0 0 32 24" fill="none" xmlns="http://www.w3.org/2000/svg">
  <path fill-rule="evenodd" clip-rule="evenodd" d="M9.71582 0C12.6206 0 14.8158 0.518979 16.3027 1.55469C16.6754 1.32112 17.0777 1.11166 17.5088 0.925781C18.94 0.308712 20.5858 4.36665e-06 22.4463 0H31.5703C31.6895 0 31.7972 0.0454516 31.8926 0.136719C31.9641 0.205231 31.9999 0.296986 32 0.411133V23.5889C31.9999 23.703 31.9641 23.8061 31.8926 23.8975C31.7972 23.9659 31.6895 24 31.5703 24H22.4463C20.5858 24 18.94 23.6913 17.5088 23.0742C17.0813 22.8899 16.6826 22.6815 16.3125 22.4502C14.6841 23.4816 12.5823 24 10.0039 24H0.431641C0.311947 24 0.2042 23.9658 0.108398 23.8975C0.0364909 23.8061 6.20243e-05 23.703 0 23.5889V0.411133C6.22124e-05 0.296986 0.036491 0.205231 0.108398 0.136719C0.204199 0.0456173 0.311947 4.50397e-05 0.431641 0H9.71582ZM22.2314 4.86816C21.2535 4.86821 20.4664 5.20047 19.8701 5.86328C19.25 6.50326 18.9395 7.37171 18.9395 8.46875V15.5312C18.9633 16.6284 19.2738 17.509 19.8701 18.1719C20.4664 18.8117 21.2422 19.1318 22.1963 19.1318H25.8818C26.0008 19.1317 26.0605 19.0741 26.0605 18.96V5.04004C26.0605 4.92591 26.0008 4.86832 25.8818 4.86816H22.2314ZM6.15332 14.1943C6.0336 14.1944 5.9738 14.2513 5.97363 14.3652V18.9258C5.97366 19.04 6.03345 19.0967 6.15332 19.0967H10.0039C10.9631 19.0967 11.7067 18.8916 12.2344 18.4805C12.6948 18.1016 12.9539 17.583 13.0127 16.9258C13.005 16.7826 13 16.6377 13 16.4912V16.2471C12.9253 15.6543 12.6721 15.1869 12.2344 14.8457C11.7306 14.4116 10.9873 14.1944 10.0039 14.1943H6.15332ZM6.15332 4.86816C6.03343 4.86819 5.97363 4.92578 5.97363 5.04004V9.36035C5.97376 9.47438 6.03355 9.53122 6.15332 9.53125H9.71582C10.6994 9.53125 11.4556 9.33681 11.9834 8.94824C12.5109 8.53686 12.7744 7.96556 12.7744 7.23438C12.7744 6.48014 12.5111 5.89678 11.9834 5.48535C11.4556 5.07392 10.6994 4.86816 9.71582 4.86816H6.15332Z"/>
  <style>
    path { fill: #000; }
    @media (prefers-color-scheme: dark) {
      path { fill: #fff; }
    }
  </style>
</svg>
