<svg version="1.1" id="Layer_1" xmlns:x="ns_extend;" xmlns:i="ns_ai;" xmlns:graph="ns_graphs;" xmlns="http://www.w3.org/2000/svg" xmlns:xlink="http://www.w3.org/1999/xlink" x="0px" y="0px" viewBox="0 0 57 56" style="enable-background:new 0 0 57 56;" xml:space="preserve">
 <style type="text/css">
  .st0{fill:none;}
	.st1{fill:#FE5E00;}
 </style>
 <metadata>
  <sfw xmlns="ns_sfw;">
   <slices>
   </slices>
   <sliceSourceBounds bottomLeftOrigin="true" height="56" width="57" x="22.6" y="-228">
   </sliceSourceBounds>
  </sfw>
 </metadata>
 <path class="st0" d="M28.5,14.4c0,0-0.1,0-0.1,0c-7.5,0-13.6,6.1-13.7,13.5c-0.2,8.4,6.7,14,13.9,14c3.4,0,6.8-1.2,9.6-4
	C47,29.4,40.9,14.4,28.5,14.4z">
 </path>
 <path class="st1" d="M50.5,22.2l5.6-1.9l-2.5-5.9l-5.3,2.5c-0.5-0.8-1.1-1.6-1.7-2.4l4.4-3.9l-4.6-4.6l-4,4.3
	c-0.8-0.6-1.6-1.2-2.5-1.6l2.6-5.2l-6.1-2.5l-1.9,5.5c-1-0.2-2-0.5-3-0.6L31.8,0h-6.6l0.4,5.8c-1,0.1-2,0.3-3,0.6l-2-5.5l-6,2.5
	l2.5,5.2c-0.8,0.5-1.7,1-2.5,1.6l-4-4.3L6,10.5l4.4,3.9c-0.6,0.8-1.2,1.6-1.7,2.5l-5.3-2.5l-2.5,5.9l5.6,1.9c-0.2,1-0.5,2-0.6,2.9
	L0,24.8v6.5l5.9-0.3c0.1,1,0.3,2,0.6,2.9l-5.6,1.9l2.5,5.9l5.3-2.5c0.5,0.9,1.1,1.7,1.7,2.5L6,45.5l4.6,4.6l4-4.3
	c0.8,0.6,1.6,1.1,2.5,1.6l-2.6,5.2l6,2.5l2-5.5c1,0.3,1.9,0.5,2.9,0.6L25.2,56h6.6l-0.4-5.8c1-0.2,2-0.3,3-0.6l2,5.5l6-2.5l-2.5-5.2
	c0.8-0.5,1.7-1,2.5-1.6l4,4.3l4.6-4.6l-4.5-3.8c0.6-0.8,1.2-1.6,1.7-2.5l5.4,2.5l2.5-6l-5.6-1.9c0.3-1,0.5-2,0.6-2.9l5.9,0.3v-6.4
	l-5.9,0.3C51,24.1,50.8,23.1,50.5,22.2z M38.2,38c-2.8,2.8-6.2,4-9.6,4c-7.2,0-14-5.6-13.9-14c0.1-7.5,6.2-13.5,13.7-13.5
	c0,0,0.1,0,0.1,0C40.9,14.4,47,29.4,38.2,38z">
 </path>
</svg>