<svg width="160" height="160" viewBox="0 0 160 160" fill="none" xmlns="http://www.w3.org/2000/svg">
<path fill-rule="evenodd" clip-rule="evenodd" d="M48.5791 0C63.1031 0 74.079 2.59037 81.5137 7.75987C83.377 6.59406 85.3885 5.5486 87.5439 4.62083C94.6999 1.54086 102.929 2.17952e-05 112.231 0H157.852C158.447 0 158.986 0.226861 159.463 0.682401C159.82 1.02437 160 1.48234 160 2.05208V117.738C160 118.308 159.82 118.823 159.463 119.279C158.986 119.621 158.447 119.791 157.852 119.791H112.231C102.929 119.791 94.6999 118.25 87.5439 115.17C85.4063 114.25 83.4128 113.209 81.5625 112.055C73.4203 117.203 62.9116 119.79 50.0195 119.791H2.1582C1.55974 119.79 1.021 119.62 0.541992 119.279C0.182454 118.823 0.000310121 118.308 0 117.738V2.05208C0.000311062 1.48234 0.182455 1.02437 0.541992 0.682401C1.021 0.227689 1.55974 0.000224805 2.1582 0H48.5791ZM111.157 24.2983C106.268 24.2986 102.332 25.957 99.3506 29.2652C96.2501 32.4596 94.6973 36.7942 94.6973 42.2699V77.5207C94.8165 82.9969 96.3688 87.3923 99.3506 90.7008C102.332 93.8943 106.211 95.4922 110.981 95.4922H129.409C130.004 95.4915 130.303 95.204 130.303 94.6344V25.1562C130.303 24.5865 130.004 24.2991 129.409 24.2983H111.157ZM30.7666 70.8478C30.168 70.848 29.869 71.1321 29.8682 71.7008V94.4638C29.8683 95.0338 30.1673 95.3166 30.7666 95.3168H50.0195C54.8156 95.3167 58.5333 94.2932 61.1719 92.2411C63.4741 90.35 64.7697 87.7616 65.0635 84.4812C65.0252 83.7668 65 83.0432 65 82.3122V81.0936C64.6265 78.1351 63.3604 75.802 61.1719 74.099C58.6531 71.9322 54.9363 70.8479 50.0195 70.8478H30.7666ZM30.7666 24.2983C30.1671 24.2985 29.8682 24.5859 29.8682 25.1562V46.7201C29.8688 47.2892 30.1678 47.5729 30.7666 47.5731H48.5791C53.497 47.5731 57.2781 46.6026 59.917 44.6631C62.5543 42.6098 63.872 39.7583 63.8721 36.1087C63.8721 32.3441 62.5555 29.4324 59.917 27.3789C57.2781 25.3253 53.497 24.2983 48.5791 24.2983H30.7666Z" fill="black"/>
<path d="M7.07789 149.86C7.02204 149.9 7.02204 149.94 7.07789 149.98C8.26183 150.58 8.85381 151.693 8.85381 153.32C8.85381 154.547 8.51314 155.493 7.83182 156.16C7.15049 156.827 6.26253 157.16 5.16794 157.16H0.996214C0.884521 157.16 0.828674 157.093 0.828674 156.96V143.36C0.828674 143.227 0.884521 143.16 0.996214 143.16H5.03391C6.19552 143.16 7.09464 143.48 7.73129 144.12C8.37911 144.747 8.70302 145.667 8.70302 146.88C8.70302 148.32 8.16131 149.313 7.07789 149.86ZM2.50407 144.82C2.45939 144.82 2.43705 144.847 2.43705 144.9V149.12C2.43705 149.173 2.45939 149.2 2.50407 149.2H5.03391C5.68173 149.2 6.18993 149.007 6.55852 148.62C6.93827 148.233 7.12815 147.707 7.12815 147.04C7.12815 146.36 6.93827 145.82 6.55852 145.42C6.18993 145.02 5.68173 144.82 5.03391 144.82H2.50407ZM5.16794 155.48C5.80459 155.48 6.30721 155.273 6.6758 154.86C7.05555 154.433 7.24543 153.86 7.24543 153.14C7.24543 152.42 7.05555 151.853 6.6758 151.44C6.29604 151.013 5.77667 150.8 5.11768 150.8H2.50407C2.45939 150.8 2.43705 150.827 2.43705 150.88V155.4C2.43705 155.453 2.45939 155.48 2.50407 155.48H5.16794Z" fill="black"/>
<path d="M15.7408 157.34C14.9255 157.34 14.2051 157.14 13.5796 156.74C12.9541 156.34 12.4682 155.78 12.122 155.06C11.7758 154.327 11.6026 153.487 11.6026 152.54V147.78C11.6026 146.833 11.7758 146 12.122 145.28C12.4682 144.56 12.9541 144 13.5796 143.6C14.2051 143.2 14.9255 143 15.7408 143C16.5674 143 17.2934 143.2 17.9189 143.6C18.5443 144 19.0302 144.56 19.3764 145.28C19.7227 146 19.8958 146.833 19.8958 147.78V152.54C19.8958 153.487 19.7227 154.327 19.3764 155.06C19.0302 155.78 18.5443 156.34 17.9189 156.74C17.2934 157.14 16.5674 157.34 15.7408 157.34ZM15.7408 155.68C16.5004 155.68 17.1147 155.4 17.5838 154.84C18.0529 154.28 18.2874 153.54 18.2874 152.62V147.76C18.2874 146.827 18.0529 146.08 17.5838 145.52C17.1147 144.947 16.5004 144.66 15.7408 144.66C14.9813 144.66 14.367 144.947 13.8979 145.52C13.44 146.08 13.211 146.827 13.211 147.76V152.62C13.211 153.54 13.44 154.28 13.8979 154.84C14.367 155.4 14.9813 155.68 15.7408 155.68Z" fill="black"/>
<path d="M29.5305 143.36C29.5305 143.227 29.5864 143.16 29.698 143.16H30.9713C31.083 143.16 31.1389 143.227 31.1389 143.36V156.96C31.1389 157.093 31.083 157.16 30.9713 157.16H29.698C29.5864 157.16 29.5305 157.093 29.5305 156.96V151.02C29.5305 150.967 29.5082 150.94 29.4635 150.94H24.6886C24.6439 150.94 24.6216 150.967 24.6216 151.02V156.96C24.6216 157.093 24.5658 157.16 24.4541 157.16H23.1808C23.0691 157.16 23.0132 157.093 23.0132 156.96V143.36C23.0132 143.227 23.0691 143.16 23.1808 143.16H24.4541C24.5658 143.16 24.6216 143.227 24.6216 143.36V149.2C24.6216 149.253 24.6439 149.28 24.6886 149.28H29.4635C29.5082 149.28 29.5305 149.253 29.5305 149.2V143.36Z" fill="black"/>
<path d="M34.6494 157.16C34.5377 157.16 34.4818 157.093 34.4818 156.96V143.36C34.4818 143.227 34.5377 143.16 34.6494 143.16H38.7038C39.8654 143.16 40.7925 143.527 41.485 144.26C42.1775 144.98 42.5237 145.947 42.5237 147.16V153.16C42.5237 154.373 42.1775 155.347 41.485 156.08C40.7925 156.8 39.8654 157.16 38.7038 157.16H34.6494ZM36.0902 155.42C36.0902 155.473 36.1125 155.5 36.1572 155.5H38.7708C39.4186 155.5 39.9324 155.267 40.3122 154.8C40.7031 154.32 40.9042 153.68 40.9153 152.88V147.44C40.9153 146.64 40.7199 146.007 40.3289 145.54C39.9492 145.06 39.4298 144.82 38.7708 144.82H36.1572C36.1125 144.82 36.0902 144.847 36.0902 144.9V155.42Z" fill="black"/>
<path d="M52.1382 157.16C52.0377 157.16 51.9707 157.107 51.9372 157L51.334 154.66C51.3229 154.62 51.3005 154.6 51.267 154.6H46.5592C46.5257 154.6 46.5033 154.62 46.4922 154.66L45.889 157C45.8555 157.107 45.7885 157.16 45.688 157.16H44.3309C44.208 157.16 44.1634 157.087 44.1969 156.94L47.866 143.32C47.8995 143.213 47.9665 143.16 48.067 143.16H49.7424C49.8429 143.16 49.91 143.213 49.9435 143.32L53.6461 156.94L53.6628 157.02C53.6628 157.113 53.6126 157.16 53.5121 157.16H52.1382ZM46.911 152.98C46.8998 153.007 46.8998 153.033 46.911 153.06C46.9333 153.073 46.9557 153.08 46.978 153.08H50.8314C50.8538 153.08 50.8705 153.073 50.8817 153.06C50.904 153.033 50.9096 153.007 50.8984 152.98L48.955 145.56C48.9438 145.533 48.9271 145.52 48.9047 145.52C48.8824 145.52 48.8656 145.533 48.8545 145.56L46.911 152.98Z" fill="black"/>
<path d="M63.1436 143.36C63.1436 143.227 63.1994 143.16 63.3111 143.16H64.5844C64.6961 143.16 64.752 143.227 64.752 143.36V156.96C64.752 157.093 64.6961 157.16 64.5844 157.16H63.3614C63.2832 157.16 63.2162 157.113 63.1603 157.02L57.9164 146.8C57.9052 146.76 57.8884 146.747 57.8661 146.76C57.8438 146.76 57.8326 146.78 57.8326 146.82L57.8494 156.96C57.8494 157.093 57.7935 157.16 57.6818 157.16H56.4085C56.2968 157.16 56.241 157.093 56.241 156.96V143.36C56.241 143.227 56.2968 143.16 56.4085 143.16H57.6483C57.7265 143.16 57.7935 143.207 57.8494 143.3L63.0766 153.52C63.0878 153.56 63.1045 153.58 63.1268 153.58C63.1492 153.567 63.1603 153.54 63.1603 153.5L63.1436 143.36Z" fill="black"/>
<path d="M72.3758 157.16C72.2641 157.16 72.2083 157.093 72.2083 156.96V143.36C72.2083 143.227 72.2641 143.16 72.3758 143.16H76.4302C77.5918 143.16 78.5189 143.527 79.2114 144.26C79.9039 144.98 80.2501 145.947 80.2501 147.16V153.16C80.2501 154.373 79.9039 155.347 79.2114 156.08C78.5189 156.8 77.5918 157.16 76.4302 157.16H72.3758ZM73.8166 155.42C73.8166 155.473 73.839 155.5 73.8836 155.5H76.4973C77.1451 155.5 77.6589 155.267 78.0386 154.8C78.4295 154.32 78.6306 153.68 78.6418 152.88V147.44C78.6418 146.64 78.4463 146.007 78.0554 145.54C77.6756 145.06 77.1562 144.82 76.4973 144.82H73.8836C73.839 144.82 73.8166 144.847 73.8166 144.9V155.42Z" fill="black"/>
<path d="M87.0223 157.34C86.2069 157.34 85.4865 157.14 84.861 156.74C84.2355 156.34 83.7497 155.78 83.4034 155.06C83.0572 154.327 82.884 153.487 82.884 152.54V147.78C82.884 146.833 83.0572 146 83.4034 145.28C83.7497 144.56 84.2355 144 84.861 143.6C85.4865 143.2 86.2069 143 87.0223 143C87.8488 143 88.5748 143.2 89.2003 143.6C89.8258 144 90.3116 144.56 90.6579 145.28C91.0041 146 91.1772 146.833 91.1772 147.78V152.54C91.1772 153.487 91.0041 154.327 90.6579 155.06C90.3116 155.78 89.8258 156.34 89.2003 156.74C88.5748 157.14 87.8488 157.34 87.0223 157.34ZM87.0223 155.68C87.7818 155.68 88.3961 155.4 88.8652 154.84C89.3343 154.28 89.5689 153.54 89.5689 152.62V147.76C89.5689 146.827 89.3343 146.08 88.8652 145.52C88.3961 144.947 87.7818 144.66 87.0223 144.66C86.2627 144.66 85.6484 144.947 85.1793 145.52C84.7214 146.08 84.4924 146.827 84.4924 147.76V152.62C84.4924 153.54 84.7214 154.28 85.1793 154.84C85.6484 155.4 86.2627 155.68 87.0223 155.68Z" fill="black"/>
<path d="M97.9135 157.32C97.0535 157.32 96.3051 157.16 95.6685 156.84C95.043 156.52 94.5571 156.067 94.2109 155.48C93.8758 154.893 93.7083 154.207 93.7083 153.42V152.84C93.7083 152.707 93.7641 152.64 93.8758 152.64H95.0988C95.2105 152.64 95.2664 152.707 95.2664 152.84V153.32C95.2664 154 95.5121 154.56 96.0035 155C96.495 155.44 97.1707 155.66 98.0308 155.66C98.8014 155.66 99.3822 155.467 99.7732 155.08C100.164 154.693 100.36 154.187 100.36 153.56C100.36 153.147 100.259 152.793 100.058 152.5C99.8569 152.207 99.561 151.94 99.17 151.7C98.7903 151.447 98.2318 151.147 97.4946 150.8C96.6793 150.427 96.0315 150.087 95.5512 149.78C95.0821 149.473 94.6911 149.073 94.3784 148.58C94.0657 148.073 93.9093 147.44 93.9093 146.68C93.9093 145.533 94.25 144.633 94.9313 143.98C95.6238 143.327 96.5564 143 97.7292 143C98.5557 143 99.2817 143.167 99.9072 143.5C100.533 143.833 101.013 144.3 101.348 144.9C101.694 145.5 101.867 146.193 101.867 146.98V147.38C101.867 147.513 101.812 147.58 101.7 147.58H100.443C100.332 147.58 100.276 147.513 100.276 147.38V147.08C100.276 146.387 100.041 145.813 99.5721 145.36C99.1142 144.893 98.4775 144.66 97.6622 144.66C96.9697 144.66 96.4336 144.833 96.0538 145.18C95.674 145.513 95.4842 146 95.4842 146.64C95.4842 147.08 95.5791 147.44 95.769 147.72C95.9589 148 96.2381 148.253 96.6067 148.48C96.9864 148.693 97.5617 148.973 98.3323 149.32C99.1254 149.693 99.7676 150.04 100.259 150.36C100.75 150.667 101.158 151.08 101.482 151.6C101.806 152.107 101.968 152.74 101.968 153.5C101.968 154.673 101.605 155.607 100.879 156.3C100.164 156.98 99.1756 157.32 97.9135 157.32Z" fill="black"/>
<path d="M111.332 143.36C111.332 143.227 111.387 143.16 111.499 143.16H112.772C112.884 143.16 112.94 143.227 112.94 143.36V156.96C112.94 157.093 112.884 157.16 112.772 157.16H111.499C111.387 157.16 111.332 157.093 111.332 156.96V151.02C111.332 150.967 111.309 150.94 111.265 150.94H106.49C106.445 150.94 106.423 150.967 106.423 151.02V156.96C106.423 157.093 106.367 157.16 106.255 157.16H104.982C104.87 157.16 104.814 157.093 104.814 156.96V143.36C104.814 143.227 104.87 143.16 104.982 143.16H106.255C106.367 143.16 106.423 143.227 106.423 143.36V149.2C106.423 149.253 106.445 149.28 106.49 149.28H111.265C111.309 149.28 111.332 149.253 111.332 149.2V143.36Z" fill="black"/>
<path d="M120.053 157.34C119.248 157.34 118.533 157.153 117.908 156.78C117.294 156.393 116.813 155.853 116.467 155.16C116.132 154.453 115.965 153.647 115.965 152.74V147.56C115.965 146.653 116.132 145.86 116.467 145.18C116.813 144.487 117.294 143.953 117.908 143.58C118.533 143.193 119.248 143 120.053 143C120.857 143 121.566 143.187 122.18 143.56C122.795 143.92 123.269 144.433 123.604 145.1C123.951 145.767 124.124 146.54 124.124 147.42V147.44C124.124 147.507 124.107 147.56 124.073 147.6C124.04 147.64 124.001 147.66 123.956 147.66L122.683 147.74C122.571 147.74 122.515 147.68 122.515 147.56V147.5C122.515 146.647 122.292 145.96 121.845 145.44C121.398 144.92 120.801 144.66 120.053 144.66C119.304 144.66 118.701 144.92 118.243 145.44C117.796 145.96 117.573 146.647 117.573 147.5V152.82C117.573 153.673 117.796 154.36 118.243 154.88C118.701 155.4 119.304 155.66 120.053 155.66C120.801 155.66 121.398 155.4 121.845 154.88C122.292 154.36 122.515 153.673 122.515 152.82V152.78C122.515 152.66 122.571 152.6 122.683 152.6L123.956 152.68C124.068 152.68 124.124 152.747 124.124 152.88C124.124 153.76 123.951 154.54 123.604 155.22C123.269 155.887 122.795 156.407 122.18 156.78C121.566 157.153 120.857 157.34 120.053 157.34Z" fill="black"/>
<path d="M133.647 143.36C133.647 143.227 133.703 143.16 133.815 143.16H135.088C135.2 143.16 135.255 143.227 135.255 143.36V156.96C135.255 157.093 135.2 157.16 135.088 157.16H133.815C133.703 157.16 133.647 157.093 133.647 156.96V151.02C133.647 150.967 133.625 150.94 133.58 150.94H128.805C128.76 150.94 128.738 150.967 128.738 151.02V156.96C128.738 157.093 128.682 157.16 128.571 157.16H127.297C127.186 157.16 127.13 157.093 127.13 156.96V143.36C127.13 143.227 127.186 143.16 127.297 143.16H128.571C128.682 143.16 128.738 143.227 128.738 143.36V149.2C128.738 149.253 128.76 149.28 128.805 149.28H133.58C133.625 149.28 133.647 149.253 133.647 149.2V143.36Z" fill="black"/>
<path d="M145.817 157.16C145.716 157.16 145.649 157.107 145.616 157L145.013 154.66C145.002 154.62 144.979 154.6 144.946 154.6H140.238C140.204 154.6 140.182 154.62 140.171 154.66L139.568 157C139.534 157.107 139.467 157.16 139.367 157.16H138.01C137.887 157.16 137.842 157.087 137.876 156.94L141.545 143.32C141.578 143.213 141.645 143.16 141.746 143.16H143.421C143.522 143.16 143.589 143.213 143.622 143.32L147.325 156.94L147.341 157.02C147.341 157.113 147.291 157.16 147.191 157.16H145.817ZM140.59 152.98C140.578 153.007 140.578 153.033 140.59 153.06C140.612 153.073 140.634 153.08 140.657 153.08H144.51C144.532 153.08 144.549 153.073 144.56 153.06C144.583 153.033 144.588 153.007 144.577 152.98L142.634 145.56C142.622 145.533 142.606 145.52 142.583 145.52C142.561 145.52 142.544 145.533 142.533 145.56L140.59 152.98Z" fill="black"/>
<path d="M150.087 157.16C149.975 157.16 149.92 157.093 149.92 156.96V143.36C149.92 143.227 149.975 143.16 150.087 143.16H151.36C151.472 143.16 151.528 143.227 151.528 143.36V149.74C151.528 149.767 151.539 149.787 151.562 149.8C151.584 149.8 151.601 149.787 151.612 149.76L156.403 143.28C156.448 143.2 156.515 143.16 156.604 143.16H158.062C158.129 143.16 158.174 143.187 158.196 143.24C158.218 143.28 158.207 143.333 158.163 143.4L154.175 149.02C154.164 149.06 154.164 149.1 154.175 149.14L158.447 156.92C158.47 156.973 158.481 157.013 158.481 157.04C158.481 157.12 158.436 157.16 158.347 157.16H156.889C156.811 157.16 156.744 157.12 156.688 157.04L153.069 150.5C153.058 150.473 153.041 150.46 153.019 150.46C152.997 150.46 152.98 150.467 152.969 150.48L151.562 152.36C151.539 152.413 151.528 152.447 151.528 152.46V156.96C151.528 157.093 151.472 157.16 151.36 157.16H150.087Z" fill="black"/>
</svg>
