<svg width="231" height="24" viewBox="0 0 231 24" fill="none" xmlns="http://www.w3.org/2000/svg">
<path fill-rule="evenodd" clip-rule="evenodd" d="M9.71582 0C12.6206 0 14.8158 0.518979 16.3027 1.55469C16.6754 1.32112 17.0777 1.11166 17.5088 0.925781C18.94 0.308712 20.5858 4.36665e-06 22.4463 0H31.5703C31.6895 0 31.7972 0.0454516 31.8926 0.136719C31.9641 0.205231 31.9999 0.296986 32 0.411133V23.5889C31.9999 23.703 31.9641 23.8061 31.8926 23.8975C31.7972 23.9659 31.6895 24 31.5703 24H22.4463C20.5858 24 18.94 23.6913 17.5088 23.0742C17.0813 22.8899 16.6826 22.6815 16.3125 22.4502C14.6841 23.4816 12.5823 24 10.0039 24H0.431641C0.311947 24 0.2042 23.9658 0.108398 23.8975C0.0364909 23.8061 6.20243e-05 23.703 0 23.5889V0.411133C6.22124e-05 0.296986 0.036491 0.205231 0.108398 0.136719C0.204199 0.0456173 0.311947 4.50397e-05 0.431641 0H9.71582ZM22.2314 4.86816C21.2535 4.86821 20.4664 5.20047 19.8701 5.86328C19.25 6.50326 18.9395 7.37171 18.9395 8.46875V15.5312C18.9633 16.6284 19.2738 17.509 19.8701 18.1719C20.4664 18.8117 21.2422 19.1318 22.1963 19.1318H25.8818C26.0008 19.1317 26.0605 19.0741 26.0605 18.96V5.04004C26.0605 4.92591 26.0008 4.86832 25.8818 4.86816H22.2314ZM6.15332 14.1943C6.0336 14.1944 5.9738 14.2513 5.97363 14.3652V18.9258C5.97366 19.04 6.03345 19.0967 6.15332 19.0967H10.0039C10.9631 19.0967 11.7067 18.8916 12.2344 18.4805C12.6948 18.1016 12.9539 17.583 13.0127 16.9258C13.005 16.7826 13 16.6377 13 16.4912V16.2471C12.9253 15.6543 12.6721 15.1869 12.2344 14.8457C11.7306 14.4116 10.9873 14.1944 10.0039 14.1943H6.15332ZM6.15332 4.86816C6.03343 4.86819 5.97363 4.92578 5.97363 5.04004V9.36035C5.97376 9.47438 6.03355 9.53122 6.15332 9.53125H9.71582C10.6994 9.53125 11.4556 9.33681 11.9834 8.94824C12.5109 8.53686 12.7744 7.96556 12.7744 7.23438C12.7744 6.48014 12.5111 5.89678 11.9834 5.48535C11.4556 5.07392 10.6994 4.86816 9.71582 4.86816H6.15332Z" fill="black"/>
<path d="M48.4492 11.86C48.3826 11.9 48.3826 11.94 48.4492 11.98C49.8626 12.58 50.5692 13.6933 50.5692 15.32C50.5692 16.5467 50.1626 17.4933 49.3492 18.16C48.5359 18.8267 47.4759 19.16 46.1692 19.16H41.1892C41.0559 19.16 40.9892 19.0933 40.9892 18.96V5.36C40.9892 5.22667 41.0559 5.16 41.1892 5.16H46.0092C47.3959 5.16 48.4692 5.48 49.2292 6.12C50.0026 6.74667 50.3892 7.66667 50.3892 8.88C50.3892 10.32 49.7426 11.3133 48.4492 11.86ZM42.9892 6.82C42.9359 6.82 42.9092 6.84667 42.9092 6.9V11.12C42.9092 11.1733 42.9359 11.2 42.9892 11.2H46.0092C46.7826 11.2 47.3892 11.0067 47.8292 10.62C48.2826 10.2333 48.5092 9.70667 48.5092 9.04C48.5092 8.36 48.2826 7.82 47.8292 7.42C47.3892 7.02 46.7826 6.82 46.0092 6.82H42.9892ZM46.1692 17.48C46.9292 17.48 47.5292 17.2733 47.9692 16.86C48.4226 16.4333 48.6492 15.86 48.6492 15.14C48.6492 14.42 48.4226 13.8533 47.9692 13.44C47.5159 13.0133 46.8959 12.8 46.1092 12.8H42.9892C42.9359 12.8 42.9092 12.8267 42.9092 12.88V17.4C42.9092 17.4533 42.9359 17.48 42.9892 17.48H46.1692Z" fill="black"/>
<path d="M58.7906 19.34C57.8173 19.34 56.9573 19.14 56.2106 18.74C55.464 18.34 54.884 17.78 54.4706 17.06C54.0573 16.3267 53.8506 15.4867 53.8506 14.54V9.78C53.8506 8.83333 54.0573 8 54.4706 7.28C54.884 6.56 55.464 6 56.2106 5.6C56.9573 5.2 57.8173 5 58.7906 5C59.7773 5 60.644 5.2 61.3906 5.6C62.1373 6 62.7173 6.56 63.1306 7.28C63.544 8 63.7506 8.83333 63.7506 9.78V14.54C63.7506 15.4867 63.544 16.3267 63.1306 17.06C62.7173 17.78 62.1373 18.34 61.3906 18.74C60.644 19.14 59.7773 19.34 58.7906 19.34ZM58.7906 17.68C59.6973 17.68 60.4306 17.4 60.9906 16.84C61.5506 16.28 61.8306 15.54 61.8306 14.62V9.76C61.8306 8.82667 61.5506 8.08 60.9906 7.52C60.4306 6.94667 59.6973 6.66 58.7906 6.66C57.884 6.66 57.1506 6.94667 56.5906 7.52C56.044 8.08 55.7706 8.82667 55.7706 9.76V14.62C55.7706 15.54 56.044 16.28 56.5906 16.84C57.1506 17.4 57.884 17.68 58.7906 17.68Z" fill="black"/>
<path d="M75.252 5.36C75.252 5.22667 75.3187 5.16 75.452 5.16H76.972C77.1054 5.16 77.172 5.22667 77.172 5.36V18.96C77.172 19.0933 77.1054 19.16 76.972 19.16H75.452C75.3187 19.16 75.252 19.0933 75.252 18.96V13.02C75.252 12.9667 75.2254 12.94 75.172 12.94H69.472C69.4187 12.94 69.392 12.9667 69.392 13.02V18.96C69.392 19.0933 69.3254 19.16 69.192 19.16H67.672C67.5387 19.16 67.472 19.0933 67.472 18.96V5.36C67.472 5.22667 67.5387 5.16 67.672 5.16H69.192C69.3254 5.16 69.392 5.22667 69.392 5.36V11.2C69.392 11.2533 69.4187 11.28 69.472 11.28H75.172C75.2254 11.28 75.252 11.2533 75.252 11.2V5.36Z" fill="black"/>
<path d="M81.3627 19.16C81.2293 19.16 81.1627 19.0933 81.1627 18.96V5.36C81.1627 5.22667 81.2293 5.16 81.3627 5.16H86.2027C87.5893 5.16 88.696 5.52667 89.5227 6.26C90.3493 6.98 90.7627 7.94667 90.7627 9.16V15.16C90.7627 16.3733 90.3493 17.3467 89.5227 18.08C88.696 18.8 87.5893 19.16 86.2027 19.16H81.3627ZM83.0827 17.42C83.0827 17.4733 83.1093 17.5 83.1627 17.5H86.2827C87.056 17.5 87.6693 17.2667 88.1227 16.8C88.5893 16.32 88.8293 15.68 88.8427 14.88V9.44C88.8427 8.64 88.6093 8.00667 88.1427 7.54C87.6893 7.06 87.0693 6.82 86.2827 6.82H83.1627C83.1093 6.82 83.0827 6.84667 83.0827 6.9V17.42Z" fill="black"/>
<path d="M102.24 19.16C102.12 19.16 102.04 19.1067 102 19L101.28 16.66C101.267 16.62 101.24 16.6 101.2 16.6H95.58C95.54 16.6 95.5133 16.62 95.5 16.66L94.78 19C94.74 19.1067 94.66 19.16 94.54 19.16H92.92C92.7733 19.16 92.72 19.0867 92.76 18.94L97.14 5.32C97.18 5.21333 97.26 5.16 97.38 5.16H99.38C99.5 5.16 99.58 5.21333 99.62 5.32L104.04 18.94L104.06 19.02C104.06 19.1133 104 19.16 103.88 19.16H102.24ZM96 14.98C95.9867 15.0067 95.9867 15.0333 96 15.06C96.0267 15.0733 96.0533 15.08 96.08 15.08H100.68C100.707 15.08 100.727 15.0733 100.74 15.06C100.767 15.0333 100.773 15.0067 100.76 14.98L98.44 7.56C98.4267 7.53333 98.4067 7.52 98.38 7.52C98.3533 7.52 98.3333 7.53333 98.32 7.56L96 14.98Z" fill="black"/>
<path d="M115.378 5.36C115.378 5.22667 115.444 5.16 115.578 5.16H117.098C117.231 5.16 117.298 5.22667 117.298 5.36V18.96C117.298 19.0933 117.231 19.16 117.098 19.16H115.638C115.544 19.16 115.464 19.1133 115.398 19.02L109.138 8.8C109.124 8.76 109.104 8.74667 109.078 8.76C109.051 8.76 109.038 8.78 109.038 8.82L109.058 18.96C109.058 19.0933 108.991 19.16 108.858 19.16H107.338C107.204 19.16 107.138 19.0933 107.138 18.96V5.36C107.138 5.22667 107.204 5.16 107.338 5.16H108.818C108.911 5.16 108.991 5.20667 109.058 5.3L115.298 15.52C115.311 15.56 115.331 15.58 115.358 15.58C115.384 15.5667 115.398 15.54 115.398 15.5L115.378 5.36Z" fill="black"/>
<path d="M126.399 19.16C126.265 19.16 126.199 19.0933 126.199 18.96V5.36C126.199 5.22667 126.265 5.16 126.399 5.16H131.239C132.625 5.16 133.732 5.52667 134.559 6.26C135.385 6.98 135.799 7.94667 135.799 9.16V15.16C135.799 16.3733 135.385 17.3467 134.559 18.08C133.732 18.8 132.625 19.16 131.239 19.16H126.399ZM128.119 17.42C128.119 17.4733 128.145 17.5 128.199 17.5H131.319C132.092 17.5 132.705 17.2667 133.159 16.8C133.625 16.32 133.865 15.68 133.879 14.88V9.44C133.879 8.64 133.645 8.00667 133.179 7.54C132.725 7.06 132.105 6.82 131.319 6.82H128.199C128.145 6.82 128.119 6.84667 128.119 6.9V17.42Z" fill="black"/>
<path d="M143.883 19.34C142.909 19.34 142.049 19.14 141.303 18.74C140.556 18.34 139.976 17.78 139.563 17.06C139.149 16.3267 138.943 15.4867 138.943 14.54V9.78C138.943 8.83333 139.149 8 139.563 7.28C139.976 6.56 140.556 6 141.303 5.6C142.049 5.2 142.909 5 143.883 5C144.869 5 145.736 5.2 146.483 5.6C147.229 6 147.809 6.56 148.223 7.28C148.636 8 148.843 8.83333 148.843 9.78V14.54C148.843 15.4867 148.636 16.3267 148.223 17.06C147.809 17.78 147.229 18.34 146.483 18.74C145.736 19.14 144.869 19.34 143.883 19.34ZM143.883 17.68C144.789 17.68 145.523 17.4 146.083 16.84C146.643 16.28 146.923 15.54 146.923 14.62V9.76C146.923 8.82667 146.643 8.08 146.083 7.52C145.523 6.94667 144.789 6.66 143.883 6.66C142.976 6.66 142.243 6.94667 141.683 7.52C141.136 8.08 140.863 8.82667 140.863 9.76V14.62C140.863 15.54 141.136 16.28 141.683 16.84C142.243 17.4 142.976 17.68 143.883 17.68Z" fill="black"/>
<path d="M156.884 19.32C155.858 19.32 154.964 19.16 154.204 18.84C153.458 18.52 152.878 18.0667 152.464 17.48C152.064 16.8933 151.864 16.2067 151.864 15.42V14.84C151.864 14.7067 151.931 14.64 152.064 14.64H153.524C153.658 14.64 153.724 14.7067 153.724 14.84V15.32C153.724 16 154.018 16.56 154.604 17C155.191 17.44 155.998 17.66 157.024 17.66C157.944 17.66 158.638 17.4667 159.104 17.08C159.571 16.6933 159.804 16.1867 159.804 15.56C159.804 15.1467 159.684 14.7933 159.444 14.5C159.204 14.2067 158.851 13.94 158.384 13.7C157.931 13.4467 157.264 13.1467 156.384 12.8C155.411 12.4267 154.638 12.0867 154.064 11.78C153.504 11.4733 153.038 11.0733 152.664 10.58C152.291 10.0733 152.104 9.44 152.104 8.68C152.104 7.53333 152.511 6.63333 153.324 5.98C154.151 5.32667 155.264 5 156.664 5C157.651 5 158.518 5.16667 159.264 5.5C160.011 5.83333 160.584 6.3 160.984 6.9C161.398 7.5 161.604 8.19333 161.604 8.98V9.38C161.604 9.51333 161.538 9.58 161.404 9.58H159.904C159.771 9.58 159.704 9.51333 159.704 9.38V9.08C159.704 8.38667 159.424 7.81333 158.864 7.36C158.318 6.89333 157.558 6.66 156.584 6.66C155.758 6.66 155.118 6.83333 154.664 7.18C154.211 7.51333 153.984 8 153.984 8.64C153.984 9.08 154.098 9.44 154.324 9.72C154.551 10 154.884 10.2533 155.324 10.48C155.778 10.6933 156.464 10.9733 157.384 11.32C158.331 11.6933 159.098 12.04 159.684 12.36C160.271 12.6667 160.758 13.08 161.144 13.6C161.531 14.1067 161.724 14.74 161.724 15.5C161.724 16.6733 161.291 17.6067 160.424 18.3C159.571 18.98 158.391 19.32 156.884 19.32Z" fill="black"/>
<path d="M172.902 5.36C172.902 5.22667 172.969 5.16 173.102 5.16H174.622C174.755 5.16 174.822 5.22667 174.822 5.36V18.96C174.822 19.0933 174.755 19.16 174.622 19.16H173.102C172.969 19.16 172.902 19.0933 172.902 18.96V13.02C172.902 12.9667 172.875 12.94 172.822 12.94H167.122C167.069 12.94 167.042 12.9667 167.042 13.02V18.96C167.042 19.0933 166.975 19.16 166.842 19.16H165.322C165.189 19.16 165.122 19.0933 165.122 18.96V5.36C165.122 5.22667 165.189 5.16 165.322 5.16H166.842C166.975 5.16 167.042 5.22667 167.042 5.36V11.2C167.042 11.2533 167.069 11.28 167.122 11.28H172.822C172.875 11.28 172.902 11.2533 172.902 11.2V5.36Z" fill="black"/>
<path d="M183.313 19.34C182.353 19.34 181.499 19.1533 180.753 18.78C180.019 18.3933 179.446 17.8533 179.033 17.16C178.633 16.4533 178.433 15.6467 178.433 14.74V9.56C178.433 8.65333 178.633 7.86 179.033 7.18C179.446 6.48667 180.019 5.95333 180.753 5.58C181.499 5.19333 182.353 5 183.313 5C184.273 5 185.119 5.18667 185.853 5.56C186.586 5.92 187.153 6.43333 187.553 7.1C187.966 7.76667 188.173 8.54 188.173 9.42V9.44C188.173 9.50667 188.153 9.56 188.113 9.6C188.073 9.64 188.026 9.66 187.973 9.66L186.453 9.74C186.319 9.74 186.253 9.68 186.253 9.56V9.5C186.253 8.64667 185.986 7.96 185.453 7.44C184.919 6.92 184.206 6.66 183.313 6.66C182.419 6.66 181.699 6.92 181.153 7.44C180.619 7.96 180.353 8.64667 180.353 9.5V14.82C180.353 15.6733 180.619 16.36 181.153 16.88C181.699 17.4 182.419 17.66 183.313 17.66C184.206 17.66 184.919 17.4 185.453 16.88C185.986 16.36 186.253 15.6733 186.253 14.82V14.78C186.253 14.66 186.319 14.6 186.453 14.6L187.973 14.68C188.106 14.68 188.173 14.7467 188.173 14.88C188.173 15.76 187.966 16.54 187.553 17.22C187.153 17.8867 186.586 18.4067 185.853 18.78C185.119 19.1533 184.273 19.34 183.313 19.34Z" fill="black"/>
<path d="M199.541 5.36C199.541 5.22667 199.608 5.16 199.741 5.16H201.261C201.394 5.16 201.461 5.22667 201.461 5.36V18.96C201.461 19.0933 201.394 19.16 201.261 19.16H199.741C199.608 19.16 199.541 19.0933 199.541 18.96V13.02C199.541 12.9667 199.514 12.94 199.461 12.94H193.761C193.708 12.94 193.681 12.9667 193.681 13.02V18.96C193.681 19.0933 193.614 19.16 193.481 19.16H191.961C191.828 19.16 191.761 19.0933 191.761 18.96V5.36C191.761 5.22667 191.828 5.16 191.961 5.16H193.481C193.614 5.16 193.681 5.22667 193.681 5.36V11.2C193.681 11.2533 193.708 11.28 193.761 11.28H199.461C199.514 11.28 199.541 11.2533 199.541 11.2V5.36Z" fill="black"/>
<path d="M214.069 19.16C213.949 19.16 213.869 19.1067 213.829 19L213.109 16.66C213.096 16.62 213.069 16.6 213.029 16.6H207.409C207.369 16.6 207.342 16.62 207.329 16.66L206.609 19C206.569 19.1067 206.489 19.16 206.369 19.16H204.749C204.602 19.16 204.549 19.0867 204.589 18.94L208.969 5.32C209.009 5.21333 209.089 5.16 209.209 5.16H211.209C211.329 5.16 211.409 5.21333 211.449 5.32L215.869 18.94L215.889 19.02C215.889 19.1133 215.829 19.16 215.709 19.16H214.069ZM207.829 14.98C207.816 15.0067 207.816 15.0333 207.829 15.06C207.856 15.0733 207.882 15.08 207.909 15.08H212.509C212.536 15.08 212.556 15.0733 212.569 15.06C212.596 15.0333 212.602 15.0067 212.589 14.98L210.269 7.56C210.256 7.53333 210.236 7.52 210.209 7.52C210.182 7.52 210.162 7.53333 210.149 7.56L207.829 14.98Z" fill="black"/>
<path d="M219.167 19.16C219.033 19.16 218.967 19.0933 218.967 18.96V5.36C218.967 5.22667 219.033 5.16 219.167 5.16H220.687C220.82 5.16 220.887 5.22667 220.887 5.36V11.74C220.887 11.7667 220.9 11.7867 220.927 11.8C220.953 11.8 220.973 11.7867 220.987 11.76L226.707 5.28C226.76 5.2 226.84 5.16 226.947 5.16H228.687C228.767 5.16 228.82 5.18667 228.847 5.24C228.873 5.28 228.86 5.33333 228.807 5.4L224.047 11.02C224.033 11.06 224.033 11.1 224.047 11.14L229.147 18.92C229.173 18.9733 229.187 19.0133 229.187 19.04C229.187 19.12 229.133 19.16 229.027 19.16H227.287C227.193 19.16 227.113 19.12 227.047 19.04L222.727 12.5C222.713 12.4733 222.693 12.46 222.667 12.46C222.64 12.46 222.62 12.4667 222.607 12.48L220.927 14.36C220.9 14.4133 220.887 14.4467 220.887 14.46V18.96C220.887 19.0933 220.82 19.16 220.687 19.16H219.167Z" fill="black"/>
</svg>
