<svg width="344" height="180" viewBox="0 0 344 180" fill="none" xmlns="http://www.w3.org/2000/svg">
<rect width="344" height="180" fill="white"/>
<path d="M344 160V180H0V160H344ZM344 140H0V120H344V140ZM343.81 100H163.81V80H343.81V100ZM343.81 60H163.81V40H343.81V60ZM343.81 20H163.81V0H343.81V20Z" fill="#CF202F"/>
<rect width="164" height="100" fill="#0047E0"/>
<path d="M43.1712 33.053L46.9263 44.6934H59.078L49.247 51.8876L53.0021 63.528L43.1712 56.3339L33.3403 63.528L37.0953 51.8876L27.2644 44.6934H39.4161L43.1712 33.053Z" fill="white"/>
<path d="M82 33.053L85.7551 44.6934H97.9068L88.0759 51.8876L91.831 63.528L82 56.3339L72.1691 63.528L75.9242 51.8876L66.0933 44.6934H78.245L82 33.053Z" fill="white"/>
<path d="M120.373 33.053L124.128 44.6934H136.28L126.449 51.8876L130.204 63.528L120.373 56.3339L110.542 63.528L114.297 51.8876L104.466 44.6934H116.618L120.373 33.053Z" fill="white"/>
<path d="M23.1017 3.88013L26.8568 15.5206H39.0085L29.1776 22.7148L32.9327 34.3552L23.1017 27.161L13.2708 34.3552L17.0259 22.7148L7.19494 15.5206H19.3466L23.1017 3.88013Z" fill="white"/>
<path d="M62.3672 3.88013L66.1223 15.5206H78.274L68.4431 22.7148L72.1982 34.3552L62.3672 27.161L52.5363 34.3552L56.2914 22.7148L46.4604 15.5206H58.6121L62.3672 3.88013Z" fill="white"/>
<path d="M101.633 3.88013L105.388 15.5206H117.54L107.709 22.7148L111.464 34.3552L101.633 27.161L91.8018 34.3552L95.5569 22.7148L85.7259 15.5206H97.8777L101.633 3.88013Z" fill="white"/>
<path d="M140.898 3.88013L144.653 15.5206H156.805L146.974 22.7148L150.729 34.3552L140.898 27.161L131.067 34.3552L134.822 22.7148L124.991 15.5206H137.143L140.898 3.88013Z" fill="white"/>
<path d="M23.1017 62.2261L26.8568 73.8665H39.0085L29.1776 81.0607L32.9327 92.7011L23.1017 85.507L13.2708 92.7011L17.0259 81.0607L7.19494 73.8665H19.3466L23.1017 62.2261Z" fill="white"/>
<path d="M62.3672 62.2261L66.1223 73.8665H78.274L68.4431 81.0607L72.1982 92.7011L62.3672 85.507L52.5363 92.7011L56.2914 81.0607L46.4604 73.8665H58.6121L62.3672 62.2261Z" fill="white"/>
<path d="M101.633 62.2261L105.388 73.8665H117.54L107.709 81.0607L111.464 92.7011L101.633 85.507L91.8018 92.7011L95.5569 81.0607L85.7259 73.8665H97.8777L101.633 62.2261Z" fill="white"/>
<path d="M140.898 62.2261L144.653 73.8665H156.805L146.974 81.0607L150.729 92.7011L140.898 85.507L131.067 92.7011L134.822 81.0607L124.991 73.8665H137.143L140.898 62.2261Z" fill="white"/>
</svg>
