<svg width="344" height="180" viewBox="0 0 344 180" fill="none" xmlns="http://www.w3.org/2000/svg">
<path d="M344 163.637V180H0V163.637H344ZM344 139.091H0V122.728H344V139.091ZM344 98.1816H163.81V81.8184H344V98.1816ZM344 57.2725H163.81V40.9092H344V57.2725ZM344 16.3633H163.81V0H344V16.3633Z" fill="#CF202F"/>
<path d="M55.962 51.073L60.5761 65.06H75.5076L63.4277 73.7045L68.0418 87.6915L55.962 79.047L43.8821 87.6915L48.4962 73.7045L36.4164 65.06H51.3479L55.962 51.073Z" fill="#007CBA"/>
<path d="M105.288 51.073L109.902 65.06H124.834L112.754 73.7045L117.368 87.6915L105.288 79.047L93.2082 87.6915L97.8223 73.7045L85.7424 65.06H100.674L105.288 51.073Z" fill="#007CBA"/>
<path d="M31.3015 10.5881L35.9156 24.5752H50.8471L38.7672 33.2196L43.3813 47.2066L31.3015 38.5622L19.2216 47.2066L23.8357 33.2196L11.7559 24.5752H26.6874L31.3015 10.5881Z" fill="#007CBA"/>
<path d="M80.625 10.5881L85.239 24.5752H100.171L88.0907 33.2196L92.7048 47.2066L80.625 38.5622L68.5451 47.2066L73.1592 33.2196L61.0793 24.5752H76.0109L80.625 10.5881Z" fill="#007CBA"/>
<path d="M129.949 10.5881L134.563 24.5752H149.494L137.414 33.2196L142.028 47.2066L129.949 38.5622L117.869 47.2066L122.483 33.2196L110.403 24.5752H125.334L129.949 10.5881Z" fill="#007CBA"/>
</svg>
