<svg width="342" height="180" viewBox="0 0 342 180" fill="none" xmlns="http://www.w3.org/2000/svg">
<g clip-path="url(#clip0_97_71)">
<path d="M0 0H342V180H0" fill="#B31942"/>
<path d="M342 152.308V166.154H0V152.308H342ZM342 124.615V138.462H0V124.615H342ZM342 96.9231V110.769H0V96.9231H342ZM342 69.2308V83.077H0V69.2308H342ZM342 41.5385V55.3847H0V41.5385H342ZM342 13.8462V27.6923H0V13.8462H342Z" fill="white"/>
<path d="M0 0H136.8V96.9231H0" fill="#0A3161"/>
<path d="M12.6436 85.5195H16.667L13.4121 87.8838L14.6553 91.7119L11.4004 89.3457L8.14453 91.7119L9.38867 87.8848L6.13281 85.5195H10.1572L11.4004 81.6924L12.6436 85.5195ZM35.4434 85.5195H39.4678L36.2109 87.8848L37.4551 91.7119L34.1992 89.3467L30.9443 91.7119L32.1875 87.8848L28.9326 85.5195H32.957L34.2002 81.6924L35.4434 85.5195ZM58.2432 85.5195H62.2676L59.0117 87.8838L60.2559 91.7119L57 89.3457L53.7441 91.7119L54.9873 87.8838L51.7324 85.5195H55.7568L57 81.6924L58.2432 85.5195ZM81.043 85.5195H85.0674L81.8115 87.8848L83.0557 91.7119L79.7998 89.3467L76.5449 91.7119L77.7881 87.8848L74.5322 85.5195H78.5566L79.7998 81.6924L81.043 85.5195ZM103.843 85.5195H107.867L104.611 87.8848L105.855 91.7119L102.6 89.3457L99.3447 91.7119L100.588 87.8838L97.333 85.5195H101.356L102.6 81.6924L103.843 85.5195ZM126.644 85.5195H130.667L127.411 87.8838L128.655 91.7119L125.399 89.3457L122.145 91.7119L123.388 87.8848L120.133 85.5195H124.157L125.4 81.6924L126.644 85.5195ZM24.043 75.8271H28.0674L24.8115 78.1924L26.0557 82.0195L22.7998 79.6543L19.5449 82.0195L20.7891 78.1924L17.5322 75.8271H21.5566L22.7998 72L24.043 75.8271ZM46.8428 75.8271H50.8672L47.6113 78.1924L48.8555 82.0195L45.5996 79.6533L42.3447 82.0195L43.5879 78.1914L40.333 75.8271H44.3564L45.5996 72L46.8428 75.8271ZM69.6436 75.8271H73.667L70.4111 78.1914L71.6553 82.0195L68.3994 79.6533L65.1445 82.0195L66.3877 78.1924L63.1328 75.8271H67.1572L68.4004 72L69.6436 75.8271ZM92.4434 75.8271H96.4678L93.2109 78.1924L94.4551 82.0195L91.1992 79.6543L87.9443 82.0195L89.1875 78.1924L85.9326 75.8271H89.957L91.2002 72L92.4434 75.8271ZM115.243 75.8271H119.268L116.012 78.1914L117.256 82.0195L114 79.6533L110.744 82.0195L111.987 78.1914L108.732 75.8271H112.757L114 72L115.243 75.8271ZM12.6436 66.1348H16.667L13.4121 68.499L14.6553 72.3271L11.4004 69.9609L8.14453 72.3271L9.38867 68.5L6.13281 66.1348H10.1572L11.4004 62.3076L12.6436 66.1348ZM35.4434 66.1348H39.4678L36.2109 68.5L37.4551 72.3271L34.1992 69.9619L30.9443 72.3271L32.1875 68.5L28.9326 66.1348H32.957L34.2002 62.3076L35.4434 66.1348ZM58.2432 66.1348H62.2676L59.0117 68.499L60.2559 72.3271L57 69.9609L53.7441 72.3271L54.9873 68.499L51.7324 66.1348H55.7568L57 62.3076L58.2432 66.1348ZM81.043 66.1348H85.0674L81.8115 68.5L83.0557 72.3271L79.7998 69.9619L76.5449 72.3271L77.7881 68.5L74.5322 66.1348H78.5566L79.7998 62.3076L81.043 66.1348ZM103.843 66.1348H107.867L104.611 68.5L105.855 72.3271L102.6 69.9609L99.3447 72.3271L100.588 68.499L97.333 66.1348H101.356L102.6 62.3076L103.843 66.1348ZM126.644 66.1348H130.667L127.411 68.499L128.655 72.3271L125.399 69.9609L122.145 72.3271L123.388 68.5L120.133 66.1348H124.157L125.4 62.3076L126.644 66.1348ZM24.043 56.4424H28.0674L24.8115 58.8076L26.0557 62.6348L22.7998 60.2695L19.5449 62.6348L20.7891 58.8076L17.5322 56.4424H21.5566L22.7998 52.6152L24.043 56.4424ZM46.8428 56.4424H50.8672L47.6113 58.8076L48.8555 62.6348L45.5996 60.2686L42.3447 62.6348L43.5879 58.8066L40.333 56.4424H44.3564L45.5996 52.6152L46.8428 56.4424ZM69.6436 56.4424H73.667L70.4111 58.8066L71.6553 62.6348L68.3994 60.2686L65.1445 62.6348L66.3877 58.8076L63.1328 56.4424H67.1572L68.4004 52.6152L69.6436 56.4424ZM92.4434 56.4424H96.4678L93.2109 58.8076L94.4551 62.6348L91.1992 60.2695L87.9443 62.6348L89.1875 58.8076L85.9326 56.4424H89.957L91.2002 52.6152L92.4434 56.4424ZM115.243 56.4424H119.268L116.012 58.8066L117.256 62.6348L114 60.2686L110.744 62.6348L111.987 58.8066L108.732 56.4424H112.757L114 52.6152L115.243 56.4424ZM12.6436 46.75H16.667L13.4121 49.1143L14.6553 52.9424L11.4004 50.5762L8.14453 52.9424L9.38867 49.1152L6.13281 46.75H10.1572L11.4004 42.9229L12.6436 46.75ZM35.4434 46.75H39.4678L36.2109 49.1152L37.4551 52.9424L34.1992 50.5771L30.9443 52.9424L32.1875 49.1152L28.9326 46.75H32.957L34.2002 42.9229L35.4434 46.75ZM58.2432 46.75H62.2676L59.0117 49.1143L60.2559 52.9424L57 50.5762L53.7441 52.9424L54.9873 49.1143L51.7324 46.75H55.7568L57 42.9229L58.2432 46.75ZM81.043 46.75H85.0674L81.8115 49.1152L83.0557 52.9424L79.7998 50.5771L76.5449 52.9424L77.7881 49.1152L74.5322 46.75H78.5566L79.7998 42.9229L81.043 46.75ZM103.843 46.75H107.867L104.611 49.1152L105.855 52.9424L102.6 50.5762L99.3447 52.9424L100.588 49.1143L97.333 46.75H101.356L102.6 42.9229L103.843 46.75ZM126.644 46.75H130.667L127.411 49.1143L128.655 52.9424L125.399 50.5762L122.145 52.9424L123.388 49.1152L120.133 46.75H124.157L125.4 42.9229L126.644 46.75ZM24.043 37.0576H28.0674L24.8115 39.4229L26.0557 43.25L22.7998 40.8848L19.5449 43.25L20.7891 39.4229L17.5322 37.0576H21.5566L22.7998 33.2305L24.043 37.0576ZM46.8428 37.0576H50.8672L47.6113 39.4229L48.8555 43.25L45.5996 40.8838L42.3447 43.25L43.5879 39.4219L40.333 37.0576H44.3564L45.5996 33.2305L46.8428 37.0576ZM69.6436 37.0576H73.667L70.4111 39.4219L71.6553 43.25L68.3994 40.8838L65.1445 43.25L66.3877 39.4229L63.1328 37.0576H67.1572L68.4004 33.2305L69.6436 37.0576ZM92.4434 37.0576H96.4678L93.2109 39.4229L94.4551 43.25L91.1992 40.8848L87.9443 43.25L89.1875 39.4229L85.9326 37.0576H89.957L91.2002 33.2305L92.4434 37.0576ZM115.243 37.0576H119.268L116.012 39.4219L117.256 43.25L114 40.8838L110.744 43.25L111.987 39.4219L108.732 37.0576H112.757L114 33.2305L115.243 37.0576ZM12.6436 27.3652H16.667L13.4121 29.7295L14.6553 33.5576L11.4004 31.1914L8.14453 33.5576L9.38867 29.7305L6.13281 27.3652H10.1572L11.4004 23.5381L12.6436 27.3652ZM35.4434 27.3652H39.4678L36.2109 29.7305L37.4551 33.5576L34.1992 31.1924L30.9443 33.5576L32.1875 29.7305L28.9326 27.3652H32.957L34.2002 23.5381L35.4434 27.3652ZM58.2432 27.3652H62.2676L59.0117 29.7295L60.2559 33.5576L57 31.1914L53.7441 33.5576L54.9873 29.7295L51.7324 27.3652H55.7568L57 23.5381L58.2432 27.3652ZM81.043 27.3652H85.0674L81.8115 29.7305L83.0557 33.5576L79.7998 31.1924L76.5449 33.5576L77.7881 29.7305L74.5322 27.3652H78.5566L79.7998 23.5381L81.043 27.3652ZM103.843 27.3652H107.867L104.611 29.7305L105.855 33.5576L102.6 31.1914L99.3447 33.5576L100.588 29.7295L97.333 27.3652H101.356L102.6 23.5381L103.843 27.3652ZM126.644 27.3652H130.667L127.411 29.7295L128.655 33.5576L125.399 31.1914L122.145 33.5576L123.388 29.7305L120.133 27.3652H124.157L125.4 23.5381L126.644 27.3652ZM24.043 17.6729H28.0674L24.8115 20.0381L26.0557 23.8652L22.7998 21.5L19.5449 23.8652L20.7891 20.0381L17.5322 17.6729H21.5566L22.7998 13.8457L24.043 17.6729ZM46.8428 17.6729H50.8672L47.6113 20.0381L48.8555 23.8652L45.5996 21.499L42.3447 23.8652L43.5879 20.0371L40.333 17.6729H44.3564L45.5996 13.8457L46.8428 17.6729ZM69.6436 17.6729H73.667L70.4111 20.0371L71.6553 23.8652L68.3994 21.499L65.1445 23.8652L66.3877 20.0381L63.1328 17.6729H67.1572L68.4004 13.8457L69.6436 17.6729ZM92.4434 17.6729H96.4678L93.2109 20.0381L94.4551 23.8652L91.1992 21.5L87.9443 23.8652L89.1875 20.0381L85.9326 17.6729H89.957L91.2002 13.8457L92.4434 17.6729ZM115.243 17.6729H119.268L116.012 20.0371L117.256 23.8652L114 21.499L110.744 23.8652L111.987 20.0371L108.732 17.6729H112.757L114 13.8457L115.243 17.6729ZM12.6436 7.98047H16.667L13.4121 10.3457L14.6553 14.1729L11.4004 11.8076L8.14453 14.1729L9.38867 10.3467L6.13281 7.98047H10.1572L11.4004 4.1543L12.6436 7.98047ZM35.4434 7.98047H39.4678L36.2119 10.3457L37.4551 14.1729L34.2002 11.8076L30.9443 14.1729L32.1875 10.3467L28.9326 7.98047H32.957L34.2002 4.1543L35.4434 7.98047ZM58.2432 7.98047H62.2676L59.0117 10.3457L60.2559 14.1729L57 11.8076L53.7441 14.1729L54.9873 10.3457L51.7324 7.98047H55.7568L57 4.1543L58.2432 7.98047ZM81.043 7.98047H85.0674L81.8115 10.3467L83.0557 14.1729L79.7998 11.8076L76.5449 14.1729L77.7881 10.3457L74.5322 7.98047H78.5566L79.7998 4.1543L81.043 7.98047ZM103.843 7.98047H107.867L104.611 10.3467L105.855 14.1729L102.6 11.8076L99.3447 14.1729L100.588 10.3457L97.333 7.98047H101.356L102.6 4.1543L103.843 7.98047ZM126.644 7.98047H130.667L127.411 10.3457L128.655 14.1729L125.399 11.8076L122.145 14.1729L123.388 10.3467L120.133 7.98047H124.157L125.4 4.1543L126.644 7.98047Z" fill="white"/>
</g>
<defs>
<clipPath id="clip0_97_71">
<rect width="342" height="180" fill="white"/>
</clipPath>
</defs>
</svg>
