<svg width="344" height="180" viewBox="0 0 344 180" fill="none" xmlns="http://www.w3.org/2000/svg">
<rect width="344" height="180" fill="white"/>
<path d="M344 163.637V180H0V163.637H344ZM344 139.091H0V122.728H344V139.091ZM344 98.1816H163.81V81.8184H344V98.1816ZM344 57.2725H163.81V40.9092H344V57.2725ZM344 16.3633H163.81V0H344V16.3633Z" fill="#CF202F"/>
<rect width="164" height="98" fill="#0047E0"/>
<path d="M43.1712 32.3921L46.9263 43.7997H59.078L49.247 50.85L53.0021 62.2577L43.1712 55.2074L33.3403 62.2577L37.0953 50.85L27.2644 43.7997H39.4161L43.1712 32.3921Z" fill="white"/>
<path d="M82 32.3921L85.7551 43.7997H97.9068L88.0759 50.85L91.831 62.2577L82 55.2074L72.1691 62.2577L75.9242 50.85L66.0933 43.7997H78.245L82 32.3921Z" fill="white"/>
<path d="M120.373 32.3921L124.128 43.7997H136.28L126.449 50.85L130.204 62.2577L120.373 55.2074L110.542 62.2577L114.297 50.85L104.466 43.7997H116.618L120.373 32.3921Z" fill="white"/>
<path d="M23.1017 3.80249L26.8568 15.2101H39.0085L29.1776 22.2604L32.9327 33.6681L23.1017 26.6178L13.2708 33.6681L17.0259 22.2604L7.19494 15.2101H19.3466L23.1017 3.80249Z" fill="white"/>
<path d="M62.3672 3.80249L66.1223 15.2101H78.274L68.4431 22.2604L72.1982 33.6681L62.3672 26.6178L52.5363 33.6681L56.2914 22.2604L46.4604 15.2101H58.6121L62.3672 3.80249Z" fill="white"/>
<path d="M101.633 3.80249L105.388 15.2101H117.54L107.709 22.2604L111.464 33.6681L101.633 26.6178L91.8018 33.6681L95.5569 22.2604L85.7259 15.2101H97.8777L101.633 3.80249Z" fill="white"/>
<path d="M140.898 3.80249L144.653 15.2101H156.805L146.974 22.2604L150.729 33.6681L140.898 26.6178L131.067 33.6681L134.822 22.2604L124.991 15.2101H137.143L140.898 3.80249Z" fill="white"/>
<path d="M23.1017 60.9814L26.8568 72.3891H39.0085L29.1776 79.4394L32.9327 90.847L23.1017 83.7967L13.2708 90.847L17.0259 79.4394L7.19494 72.3891H19.3466L23.1017 60.9814Z" fill="white"/>
<path d="M62.3672 60.9814L66.1223 72.3891H78.274L68.4431 79.4394L72.1982 90.847L62.3672 83.7967L52.5363 90.847L56.2914 79.4394L46.4604 72.3891H58.6121L62.3672 60.9814Z" fill="white"/>
<path d="M101.633 60.9814L105.388 72.3891H117.54L107.709 79.4394L111.464 90.847L101.633 83.7967L91.8018 90.847L95.5569 79.4394L85.7259 72.3891H97.8777L101.633 60.9814Z" fill="white"/>
<path d="M140.898 60.9814L144.653 72.3891H156.805L146.974 79.4394L150.729 90.847L140.898 83.7967L131.067 90.847L134.822 79.4394L124.991 72.3891H137.143L140.898 60.9814Z" fill="white"/>
</svg>
