<svg width="480" height="360" viewBox="0 0 480 360" fill="none" xmlns="http://www.w3.org/2000/svg">
<g clip-path="url(#clip0_31_53)">
<path d="M458.394 0C470.226 0 479.722 9.77048 479.386 21.5977L478.393 56.5L479.888 338.889H479.887C479.947 350.348 470.822 359.704 459.433 359.993L458.889 360H21L20.458 359.993C9.29062 359.71 0.289749 350.709 0.00683594 339.542L0 339V21C7.61079e-07 9.58323 9.11052 0.294312 20.458 0.00683594L21 0H458.394ZM8 339C8 346.18 13.8203 352 21 352H458.889C466.095 352 471.927 346.137 471.889 338.931L470.413 60.5H8V339ZM272 174H336V238H272V302H208V238H144V174H208V110H272V174ZM21 8C13.8203 8 8 13.8203 8 21V52.5H470.503L471.389 21.3701C471.597 14.0485 465.718 8 458.394 8H21ZM32.5 18C39.4036 18 45 23.5964 45 30.5C45 37.4036 39.4036 43 32.5 43C25.5964 43 20 37.4036 20 30.5C20 23.5964 25.5964 18 32.5 18ZM65.5 18C72.4036 18 78 23.5964 78 30.5C78 37.4036 72.4036 43 65.5 43C58.5964 43 53 37.4036 53 30.5C53 23.5964 58.5964 18 65.5 18ZM98.5 18C105.404 18 111 23.5964 111 30.5C111 37.4036 105.404 43 98.5 43C91.5964 43 86 37.4036 86 30.5C86 23.5964 91.5964 18 98.5 18ZM98.5 23C94.3579 23 91 26.3579 91 30.5C91 34.6421 94.3579 38 98.5 38C102.642 38 106 34.6421 106 30.5C106 26.3579 102.642 23 98.5 23ZM32.5 23C28.3579 23 25 26.3579 25 30.5C25 34.6421 28.3579 38 32.5 38C36.6421 38 40 34.6421 40 30.5C40 26.3579 36.6421 23 32.5 23ZM65.5 23C61.3579 23 58 26.3579 58 30.5C58 34.6421 61.3579 38 65.5 38C69.6421 38 73 34.6421 73 30.5C73 26.3579 69.6421 23 65.5 23Z" fill="white"/>
</g>
<defs>
<clipPath id="clip0_31_53">
<rect width="480" height="360" fill="white"/>
</clipPath>
</defs>
</svg>
